<?xml version="1.0" encoding="UTF-8" standalone="no"?>
<svg width="535px" height="1023px" viewBox="0 0 535 1023" version="1.1" xmlns="http://www.w3.org/2000/svg" xmlns:xlink="http://www.w3.org/1999/xlink" xmlns:sketch="http://www.bohemiancoding.com/sketch/ns">
    <!-- Generator: Sketch 3.0.4 (8053) - http://www.bohemiancoding.com/sketch -->
    <title>logo-vector 2</title>
    <desc>Created with Sketch.</desc>
    <defs></defs>
    <g id="Page-1" stroke="none" stroke-width="1" fill="none" fill-rule="evenodd" sketch:type="MSPage">
        <rect id="Rectangle-2" stroke="#008133" stroke-width="51" fill="#FFFFFF" sketch:type="MSShapeGroup" transform="translate(-1024.000000, 1481.000000) rotate(-315.000000) translate(1024.000000, -1481.000000) " x="-1856" y="649" width="1664" height="1664"></rect>
        <path d="M97.4118208,220.707025 C93.3959636,228.734117 87.0168331,235.368443 83.1315539,243.134529 C74.6024971,260.182825 62.6902515,275.838148 54.57102,292.067265 C40.653629,319.886026 27.036137,344.551127 16.3203051,376.68012 C12.1767361,389.103672 6.88005297,401.936425 4.08007626,415.928251 L4.08007626,418.986547 C3.57006673,420.175884 3.57006673,421.365222 3.57006673,422.554559 C3.0600572,423.573991 3.0600572,424.593423 3.0600572,425.612855 C2.55004766,426.802192 2.55004766,427.99153 2.55004766,429.180867 C2.04003813,430.54011 2.04003813,431.899352 2.04003813,433.258595 C1.5300286,434.617838 1.5300286,435.97708 1.5300286,437.336323 C1.02001907,439.035376 1.02001907,440.734429 1.02001907,442.433483 C0.510009533,444.812157 0.510009533,447.190832 0.510009533,449.569507 C0,456.025909 0,462.482312 0,468.938714 C0.510009533,471.147484 0.510009533,473.356253 0.510009533,475.565022 C1.02001907,476.924265 1.02001907,478.283508 1.02001907,479.64275 C1.5300286,480.832088 1.5300286,482.021425 1.5300286,483.210762 C2.04003813,484.230194 2.04003813,485.249626 2.04003813,486.269058 C7.66488828,521.879658 25.0091665,549.001503 38.7607245,576.488789 C41.7925077,582.548866 47.9691701,587.759057 51.0009533,593.819133 C53.0178602,597.850625 63.7164161,616.229259 66.8112488,617.775785 L66.8112488,629.499253 C66.3012393,636.975087 66.3012393,644.450922 66.3012393,651.926756 C66.8112488,652.946188 66.8112488,653.96562 66.8112488,654.985052 C67.3212583,662.460887 67.3212583,669.936721 67.3212583,677.412556 C67.8312679,679.111609 67.8312679,680.810663 67.8312679,682.509716 C68.3412774,683.868959 68.3412774,685.228201 68.3412774,686.587444 C68.8512869,687.776781 68.8512869,688.966119 68.8512869,690.155456 C69.3612965,691.174888 69.3612965,692.19432 69.3612965,693.213752 C73.7401307,715.048359 84.3953885,726.544236 88.7416587,748.263079 L88.7416587,751.321375 C89.2516683,752.340807 89.2516683,753.360239 89.2516683,754.379671 C89.7616778,756.418535 89.7616778,758.457399 89.7616778,760.496263 C90.2716873,763.724464 90.2716873,766.952666 90.2716873,770.180867 C90.7816969,773.578974 90.7816969,776.97708 90.7816969,780.375187 C91.2917064,783.943199 91.2917064,787.511211 91.2917064,791.079223 C91.8017159,794.307424 91.8017159,797.535625 91.8017159,800.763827 C92.3117255,803.822123 92.3117255,806.880419 92.3117255,809.938714 C92.821735,811.977578 92.821735,814.016442 92.821735,816.055306 C95.4215965,834.429592 104.179762,845.288092 107.612011,862.439462 L107.612011,866.51719 C108.122021,868.046338 108.122021,869.575486 108.122021,871.104634 C108.632031,872.633782 108.632031,874.16293 108.632031,875.692078 C109.14204,877.221226 109.14204,878.750374 109.14204,880.279522 C109.65205,881.80867 109.65205,883.337818 109.65205,884.866966 C110.162059,886.396114 110.162059,887.925262 110.162059,889.45441 C110.672069,890.983558 110.672069,892.512706 110.672069,894.041854 C111.182078,895.401096 111.182078,896.760339 111.182078,898.119581 C111.692088,899.478824 111.692088,900.838067 111.692088,902.197309 C112.202097,903.556552 112.202097,904.915795 112.202097,906.275037 C112.712107,907.294469 112.712107,908.313901 112.712107,909.333333 C112.926764,912.346329 114.229685,914.890438 114.752145,916.979073 L114.752145,923.605381 C115.262154,930.231689 115.262154,936.857997 115.262154,943.484305 C116.051056,953.167668 112.043689,957.879903 110.162059,965.402093 C111.40117,970.653761 106.830876,970.053984 106.081983,973.047833 C103.085397,985.027278 97.2440867,992.410237 93.8417541,1002.61136 C94.1283052,1011.39278 99.2379886,1018.1714 106.081983,1020.45142 C110.56304,1019.66096 110.985798,1021.88248 113.222116,1023 C116.898264,1023.56024 117.039222,1022.36684 118.832221,1021.47085 C127.994013,1022.47919 128.539754,1018.83556 130.052431,1011.27653 L130.052431,1007.70852 C128.195223,997.788268 140.46675,993.487067 138.722593,984.7713 C137.746927,979.895779 128.125373,979.051509 129.542421,977.635277 C133.876425,973.303767 140.989539,970.045699 143.822688,964.382661 L143.822688,960.304933 C143.174424,953.97919 140.510401,949.102274 139.232602,943.994021 L139.232602,926.153961 C138.722593,924.624813 138.722593,923.095665 138.722593,921.566517 C136.993705,910.678152 134.009251,901.194854 131.582459,891.493274 L131.582459,888.434978 C131.07245,886.396114 131.07245,884.35725 131.07245,882.318386 C130.56244,881.298954 130.56244,880.279522 130.56244,879.26009 C130.128092,875.200996 128.663242,871.808426 128.012393,868.556054 C128.414211,866.636955 127.221538,864.094339 126.992374,862.949178 L126.992374,834.914798 C126.482364,831.856502 126.482364,828.798206 126.482364,825.73991 C134.526034,816.859842 118.602256,784.072929 120.36225,775.278027 C121.665045,768.767802 124.625431,761.620129 125.972355,754.889387 L125.972355,751.321375 C126.482364,750.301943 126.482364,749.282511 126.482364,748.263079 C126.992374,747.073742 126.992374,745.884405 126.992374,744.695067 C127.502383,743.50573 127.502383,742.316393 127.502383,741.127055 C128.012393,740.107623 128.012393,739.088191 128.012393,738.068759 C128.522402,736.709517 128.522402,735.350274 128.522402,733.991031 C129.032412,732.631789 129.032412,731.272546 129.032412,729.913303 C129.542421,728.554061 129.542421,727.194818 129.542421,725.835575 C130.479843,721.588802 130.725157,716.498065 133.112488,714.112108 C135.007163,712.218524 142.283617,727.337611 142.802669,728.893871 C150.158765,750.949457 158.936729,773.514045 164.733079,796.686099 L164.733079,799.744395 C165.243089,802.46288 165.243089,805.181365 165.243089,807.899851 C164.733079,809.938714 164.733079,811.977578 164.733079,814.016442 C165.681374,831.944032 172.575536,844.858499 176.463298,860.400598 L176.463298,863.458894 C176.973308,864.478326 176.973308,865.497758 176.973308,866.51719 C177.483317,867.706527 177.483317,868.895864 177.483317,870.085202 C177.993327,871.61435 177.993327,873.143498 177.993327,874.672646 C178.503337,876.71151 178.503337,878.750374 178.503337,880.789238 C179.013346,883.337818 179.013346,885.886398 179.013346,888.434978 C179.523356,902.027404 179.523356,915.619831 179.523356,929.212257 C179.013346,934.649228 179.013346,940.086198 179.013346,945.523169 C179.121537,947.442267 180.314211,949.984884 180.543375,951.130045 L180.543375,954.698057 C181.053384,955.887394 181.053384,957.076731 181.053384,958.266069 C181.563394,959.965122 181.732553,961.672607 181.563394,963.363229 C181.249519,966.500172 175.337295,970.7111 173.913251,973.557549 C171.432325,978.516544 168.990309,983.886042 167.793136,989.86846 C166.748338,994.445173 168.25125,996.339171 169.323165,999.553064 C168.119474,1009.72789 172.962721,1008.24139 180.543375,1010.76682 C182.221438,1011.32585 187.530576,1016.95983 189.723546,1015.86398 C200.416486,1010.52058 199.706366,991.614854 207.57388,983.751868 C208.124202,983.201863 203.958401,979.300582 204.513823,977.635277 C204.761029,976.894085 208.468934,975.336483 209.103908,974.067265 L209.103908,965.402093 C208.765685,961.072843 207.234692,957.590536 206.553861,954.188341 C206.550387,950.073636 208.416831,947.937145 209.103908,944.503737 C208.393904,937.93584 211.713519,938.599217 212.673975,933.799701 C211.542298,924.176548 206.711458,917.96131 204.003813,909.843049 L204.003813,901.177877 C203.493804,898.969108 203.493804,896.760339 203.493804,894.55157 C202.983794,892.3428 202.983794,890.134031 202.983794,887.925262 C202.473785,885.546587 202.473785,883.167912 202.473785,880.789238 C201.963775,878.240658 201.963775,875.692078 201.963775,873.143498 C201.453765,869.915296 201.453765,866.687095 201.453765,863.458894 C200.943756,859.041355 200.943756,854.623817 200.943756,850.206278 C198.538481,841.49041 202.133744,836.274176 204.003813,828.798206 C204.323287,819.759669 199.122873,817.441139 197.373689,810.44843 L197.373689,804.841555 C196.86368,803.142501 196.86368,801.443448 196.86368,799.744395 C196.35367,798.385152 196.35367,797.025909 196.35367,795.666667 C195.843661,794.307424 195.843661,792.948181 195.843661,791.588939 C195.333651,790.399601 195.333651,789.210264 195.333651,788.020927 C194.823642,786.661684 194.823642,785.302441 194.823642,783.943199 C194.313632,782.753861 194.313632,781.564524 194.313632,780.375187 C193.803622,779.18585 193.803622,777.996512 193.803622,776.807175 C193.293613,775.447932 193.293613,774.08869 193.293613,772.729447 C192.783603,771.54011 192.783603,770.350772 192.783603,769.161435 C192.273594,767.802192 192.273594,766.44295 192.273594,765.083707 C191.763584,763.214748 191.763584,761.34579 191.763584,759.476831 C191.253575,755.738914 191.253575,752.000997 191.253575,748.263079 C190.743565,745.884405 190.743565,743.50573 190.743565,741.127055 C191.253575,738.578475 191.253575,736.029895 191.253575,733.481315 C191.992232,731.221733 192.100708,729.731872 191.763584,728.384155 L191.763584,725.325859 C191.253575,724.306428 191.253575,723.286996 191.253575,722.267564 C190.743565,721.078226 190.743565,719.888889 190.743565,718.699552 C190.233556,717.68012 190.233556,716.660688 190.233556,715.641256 C189.723546,714.451918 189.723546,713.262581 189.723546,712.073244 C189.213537,710.714001 189.213537,709.354758 189.213537,707.995516 C188.703527,706.296462 188.703527,704.597409 188.703527,702.898356 C188.193518,700.859492 188.193518,698.820628 188.193518,696.781764 C188.703527,695.422521 188.703527,694.063279 188.703527,692.704036 C189.213537,691.344793 189.213537,689.985551 189.213537,688.626308 C189.723546,687.436971 189.723546,686.247633 189.723546,685.058296 C190.233556,683.868959 190.233556,682.679621 190.233556,681.490284 C190.743565,680.470852 190.743565,679.45142 190.743565,678.431988 C191.253575,677.242651 191.253575,676.053313 191.253575,674.863976 C192.606153,669.386213 192.757243,657.795077 197.883699,656.5142 L221.854147,656.5142 C227.464252,657.023916 233.074357,657.023916 238.684461,657.023916 C241.404512,656.5142 244.124563,656.5142 246.844614,656.5142 C248.714649,656.004484 250.584684,656.004484 252.454719,656.004484 C257.291956,655.71061 259.748334,653.064962 263.164919,651.926756 C264.694948,651.926756 266.234334,651.75789 267.755005,651.926756 C271.641968,652.358393 291.181252,681.965829 295.805529,686.587444 C301.582498,692.361088 313.127714,699.294085 316.71592,706.466368 L316.71592,710.03438 C317.225929,715.47135 317.225929,720.908321 317.225929,726.345291 C316.71592,729.063777 316.71592,731.782262 316.71592,734.500747 C316.20591,736.029895 316.20591,737.559043 316.20591,739.088191 C315.695901,740.277529 315.695901,741.466866 315.695901,742.656203 C315.767498,748.120055 318.7844,750.415646 319.775977,754.379671 L319.775977,757.947683 C319.265968,759.306926 319.265968,760.666168 319.265968,762.025411 C319.242774,773.686285 312.267184,781.848978 310.085796,790.569507 C308.968463,795.036265 308.921879,799.156408 307.535748,803.312407 C306.498794,806.421479 303.266444,809.675759 302.435653,812.99701 C298.55851,828.496654 293.689573,840.239581 289.175405,853.77429 C286.054641,863.131194 277.776318,870.290584 275.405148,879.769806 C274.809259,885.574707 277.197262,888.201349 278.465205,892.00299 C279.599812,905.695643 270.248782,905.990272 267.755005,915.959641 C268.232419,920.458596 266.958992,919.975407 267.755005,921.566517 C267.831386,927.541698 269.304785,933.299855 273.36511,935.328849 L276.425167,935.328849 C280.504271,935.190897 280.016795,934.065334 281.525262,934.819133 C284.786276,934.904435 286.838869,935.275502 288.665396,934.819133 C299.825891,933.995607 306.586616,922.883128 309.575786,913.920777 C309.575786,911.712008 309.745289,909.496733 309.575786,907.294469 C309.352682,904.39578 304.112943,902.786015 303.455672,900.158445 C303.065717,898.599523 310.123806,889.378432 311.105815,887.415546 C309.871465,878.562258 312.979107,877.035044 314.165872,871.104634 L314.165872,868.046338 C314.675882,866.857 314.675882,865.667663 314.675882,864.478326 C315.185891,863.458894 315.185891,862.439462 315.185891,861.42003 C316.75357,851.194568 320.584964,842.894464 322.836034,833.895366 C322.836034,832.026408 322.666729,830.149774 322.836034,828.28849 C322.846347,828.175116 329.248407,814.159604 329.976168,811.977578 C332.515295,804.36458 332.648012,796.320918 335.076263,789.040359 C336.503802,784.760208 340.801101,781.165286 342.726406,777.316891 C343.820126,775.13071 345.631975,767.853659 347.826501,767.122571 C363.310651,761.964158 371.738615,754.044857 376.897045,738.578475 L376.897045,735.010463 C377.407054,730.423019 377.407054,725.835575 377.407054,721.248132 C373.507144,706.190628 358.770017,687.753352 355.986654,673.844544 L355.986654,670.276532 C355.476644,669.087195 355.476644,667.897857 355.476644,666.70852 C354.966635,665.349278 354.966635,663.990035 354.966635,662.630792 C354.456625,660.591928 354.456625,658.553064 354.456625,656.5142 C353.946616,650.567514 353.946616,644.620827 353.946616,638.674141 C354.454356,634.825213 360.425212,610.309183 363.126787,611.659193 C365.900012,613.045007 391.862574,656.354788 394.747378,662.121076 C396.54407,665.712392 401.110839,668.724081 402.907531,672.315396 C412.942602,692.373986 433.092828,708.694591 445.748332,733.991031 C447.802086,738.096175 451.341818,742.096661 452.888465,746.733931 L452.888465,750.301943 C453.398475,752.340807 453.398475,754.379671 453.398475,756.418535 C453.908484,759.646736 453.908484,762.874938 453.908484,766.103139 C454.418494,769.33134 454.418494,772.559542 454.418494,775.787743 C454.928503,777.826607 454.928503,779.865471 454.928503,781.904335 C455.438513,783.093672 455.438513,784.283009 455.438513,785.472347 C455.948522,786.491779 455.948522,787.511211 455.948522,788.530643 C456.458532,789.71998 456.458532,790.909317 456.458532,792.098655 C456.968541,793.627803 456.968541,795.156951 456.968541,796.686099 C457.478551,797.875436 457.478551,799.064773 457.478551,800.254111 C457.988561,805.181365 457.988561,810.10862 457.988561,815.035874 C458.49857,816.395117 458.49857,817.75436 458.49857,819.113602 C459.00858,820.30294 459.00858,821.492277 459.00858,822.681614 C459.518589,823.701046 459.518589,824.720478 459.518589,825.73991 C460.028599,826.759342 460.028599,827.778774 460.028599,828.798206 C460.538608,829.987544 460.538608,831.176881 460.538608,832.366218 C461.048618,834.405082 461.048618,836.443946 461.048618,838.48281 C461.558627,840.861485 461.558627,843.240159 461.558627,845.618834 C462.068637,848.337319 462.068637,851.055805 462.068637,853.77429 C470.33046,860.141426 454.344098,885.079268 455.438513,889.45441 L455.438513,893.022422 C456.377777,899.527646 458.647852,904.832956 460.028599,910.352765 C463.170299,931.083388 450.357547,919.470297 446.258341,931.760837 L446.258341,935.328849 C443.985853,943.413303 446.912976,942.175789 445.748332,944.503737 L445.748332,947.562033 C445.238322,948.75137 445.238322,949.940708 445.238322,951.130045 C444.548096,958.92933 446.744103,964.544488 452.378456,966.421525 L455.438513,966.421525 C460.471122,965.078257 460.125944,967.234743 462.578646,968.460389 C482.688695,967.911134 486.497613,947.767841 490.629171,931.251121 C491.902561,926.16049 496.366361,923.607047 497.769304,917.998505 L497.769304,913.920777 C501.526778,899.922288 492.140863,898.555993 490.119161,890.473842 C490.075445,882.074015 485.921785,878.164213 484.509056,871.104634 L484.509056,864.478326 C485.019066,860.400598 485.019066,856.32287 485.019066,852.245142 C485.529075,847.657698 485.529075,843.070254 485.529075,838.48281 C486.039085,832.366218 486.039085,826.249626 486.039085,820.133034 C485.529075,817.244644 485.529075,814.356253 485.529075,811.467862 C485.019066,808.749377 485.019066,806.030892 485.019066,803.312407 C484.509056,800.424016 484.509056,797.535625 484.509056,794.647235 C483.999047,791.079223 483.999047,787.511211 483.999047,783.943199 C483.489037,781.904335 483.489037,779.865471 483.489037,777.826607 C481.804515,758.109734 495.09415,754.879809 498.789323,740.107623 L498.789323,737.049327 C499.299333,735.520179 499.299333,733.991031 499.299333,732.461883 C499.809342,728.893871 499.809342,725.325859 499.809342,721.757848 C496.412562,696.232747 475.475617,687.830397 470.738799,664.15994 L470.738799,655.494768 C471.248808,654.135526 471.248808,652.776283 471.248808,651.41704 C471.758818,650.057798 471.758818,648.698555 471.758818,647.339312 C472.268827,646.149975 472.268827,644.960638 472.268827,643.7713 C472.778837,642.751868 472.778837,641.732436 472.778837,640.713004 C473.288847,639.693572 473.288847,638.674141 473.288847,637.654709 C473.798856,636.635277 473.798856,635.615845 473.798856,634.596413 C474.934258,616.241196 483.925369,602.852483 487.059104,587.192825 L487.059104,584.134529 C487.569113,583.115097 487.569113,582.095665 487.569113,581.076233 C488.079123,579.886896 488.079123,578.697559 488.079123,577.508221 C488.589133,576.488789 488.589133,575.469357 488.589133,574.449925 C489.099142,573.430493 489.099142,572.411061 489.099142,571.391629 C489.609152,570.372197 489.609152,569.352765 489.609152,568.333333 C490.119161,567.313901 490.119161,566.294469 490.119161,565.275037 C491.737151,558.559026 492.199707,552.410684 494.199237,546.415546 C495.542497,542.388087 499.748906,540.419757 501.339371,537.240658 C503.302382,533.316894 504.933393,529.547035 506.949476,525.51719 C509.267471,520.883867 514.826078,517.192462 516.639657,511.754858 C523.653008,490.726915 527.858632,467.922985 535,446.511211 L535,436.826607 C534.136554,431.419514 532.804522,425.025464 528.879886,423.064275 C525.838671,423.113658 521.756949,424.049334 520.719733,426.122571 C517.938612,431.681611 515.653641,437.744089 513.5796,443.962631 C510.037192,454.583738 492.361764,474.189508 482.469018,479.133034 C480.23403,480.249885 476.764285,486.117986 473.288847,485.249626 C470.714593,484.606433 457.560879,463.414119 453.908484,459.763827 C439.564867,445.428465 410.61011,429.701064 387.607245,425.103139 C386.587226,425.103139 368.94385,421.799589 360.06673,423.573991 C338.265991,427.931629 325.331252,440.58279 307.535748,446.511211 C293.003818,451.3524 277.357549,456.417218 260.614871,459.763827 C258.694668,459.362239 256.150587,460.554226 255.004766,460.783259 L251.944709,460.783259 C250.754687,461.292975 249.564665,461.292975 248.374643,461.292975 C247.014617,461.802691 245.654592,461.802691 244.294566,461.802691 C239.859256,462.16553 236.538827,462.923168 234.094376,462.312407 L225.934223,462.312407 C197.583216,458.043847 172.484642,448.320557 146.882745,441.923767 L143.312679,441.923767 C141.442644,441.414051 139.572609,441.414051 137.702574,441.414051 C133.215773,441.048375 131.416223,440.23977 130.56244,436.826607 L130.56244,432.239163 C130.052431,430.87992 130.052431,429.520678 130.052431,428.161435 C130.56244,425.273044 130.56244,422.384654 130.56244,419.496263 C131.07245,417.287494 131.07245,415.078724 131.07245,412.869955 C131.582459,409.641754 131.582459,406.413553 131.582459,403.185351 C132.092469,401.656203 132.092469,400.127055 132.092469,398.597907 C132.602479,397.578475 132.602479,396.559043 132.602479,395.539611 C133.112488,394.520179 133.112488,393.500747 133.112488,392.481315 C133.622498,391.461883 133.622498,390.442451 133.622498,389.423019 C134.132507,388.403587 134.132507,387.384155 134.132507,386.364723 C134.642517,385.345291 134.642517,384.325859 134.642517,383.306428 C135.152526,382.286996 135.152526,381.267564 135.152526,380.248132 C135.260717,378.329033 136.453391,375.786416 136.682555,374.641256 L136.682555,371.58296 C136.790746,369.663861 137.983419,367.121245 138.212583,365.976084 C137.810765,364.056985 139.003438,361.514369 139.232602,360.369208 C144.359304,334.077901 150.156779,309.775481 158.102955,285.950673 C160.831457,277.769879 167.571192,269.795495 170.343184,261.484305 C172.318596,255.56148 174.281577,249.534324 176.973308,244.153961 C179.509313,239.084869 193.886187,222.056526 192.273594,215.609865 C191.403921,212.133175 181.89025,211.131311 178.503337,210.00299 C172.694713,208.067896 167.014926,198.978153 165.753098,192.672646 L165.753098,189.104634 C165.243089,186.216243 165.243089,183.327853 165.243089,180.439462 C164.733079,177.211261 164.733079,173.983059 164.733079,170.754858 C164.22307,168.715994 164.22307,166.67713 164.22307,164.638266 C163.195616,130.078434 131.725558,177.564516 125.972355,180.439462 C118.640139,192.046798 103.299228,208.938989 97.4118208,220.707025 L97.4118208,220.707025 Z M265.204957,615.736921 C269.276952,614.461407 274.644796,613.034494 278.975214,612.168909 L282.545281,612.168909 L282.545281,611.659193 L286.115348,611.659193 L286.115348,611.149477 L290.195424,611.149477 L290.195424,610.639761 L293.765491,610.639761 L293.765491,610.130045 L297.845567,610.130045 L297.845567,609.620329 L301.415634,609.620329 L301.415634,609.110613 C311.203829,607.899897 319.618728,605.199604 328.446139,602.994021 L331.506196,602.994021 L331.506196,602.484305 C331.548697,602.484305 336.181284,601.294968 335.076263,603.503737 C331.56982,610.512586 305.081774,625.219613 296.825548,627.970105 C284.26179,632.155613 270.049657,635.463008 256.534795,638.164425 C254.614591,637.762837 252.07051,638.954824 250.92469,639.183857 L247.864633,639.183857 L247.864633,639.693572 L244.804576,639.693572 L244.804576,640.203288 L239.194471,640.203288 L239.194471,640.713004 L204.513823,640.713004 L204.513823,640.203288 C196.214125,640.454639 195.771199,641.880051 194.823642,637.144993 L194.823642,633.067265 L194.313632,633.067265 L194.313632,620.834081 L198.393708,620.834081 L198.393708,621.343797 L202.473785,621.343797 L202.473785,621.853513 L207.57388,621.853513 L207.57388,622.363229 L224.404194,622.363229 L224.404194,621.853513 L229.50429,621.853513 L229.50429,621.343797 L234.094376,621.343797 L234.094376,620.834081 L238.174452,620.834081 L238.174452,620.324365 L242.254528,620.324365 L242.254528,619.814649 L245.824595,619.814649 L245.824595,619.304933 L248.884652,619.304933 L248.884652,618.795217 C254.98802,618.932463 259.399297,615.736921 265.204957,615.736921 L265.204957,615.736921 L265.204957,615.736921 Z M30.0905624,499.011958 L30.0905624,493.914798 L29.5805529,493.914798 L29.5805529,483.210762 L30.0905624,483.210762 L30.0905624,477.603886 L30.600572,477.603886 L30.600572,473.526158 L31.1105815,473.526158 C34.1846394,458.657848 39.1402282,440.580859 44.872209,422.856717 C51.5442587,402.22574 59.2682463,382.072838 66.3012393,368.014948 C72.8576581,354.909657 82.2202529,342.311837 88.7416587,329.276532 C90.6886444,325.384802 107.89712,298.326329 111.692088,300.22272 C111.943498,300.348353 109.446636,308.484347 109.14204,309.397608 C105.931589,319.023417 101.685164,329.20678 98.4318398,338.961136 C89.4241115,365.968768 82.4374709,395.440017 76.5014299,425.103139 C76.9032483,427.022237 75.7105749,429.564854 75.4814109,430.710015 L75.4814109,433.768311 L74.9714013,433.768311 L74.9714013,436.826607 L74.4613918,436.826607 C74.8632102,438.745705 73.6705368,441.288322 73.4413727,442.433483 L73.4413727,445.491779 L72.9313632,445.491779 L72.9313632,448.550075 L72.4213537,448.550075 L72.4213537,452.118087 L71.9113441,452.118087 L71.9113441,455.176383 L71.4013346,455.176383 L71.4013346,458.234679 L70.8913251,458.234679 L70.8913251,461.292975 L70.3813155,461.292975 L70.3813155,464.860987 L69.871306,464.860987 L69.871306,467.919283 L69.3612965,467.919283 L69.3612965,471.487294 L68.8512869,471.487294 L68.8512869,474.54559 L68.3412774,474.54559 L68.3412774,478.113602 L67.8312679,478.113602 L67.8312679,481.681614 L67.3212583,481.681614 L67.3212583,485.249626 L66.8112488,485.249626 L66.8112488,488.817638 L66.3012393,488.817638 L66.3012393,492.895366 L65.7912297,492.895366 L65.7912297,496.463378 L65.2812202,496.463378 L65.2812202,500.541106 L64.7712107,500.541106 L64.7712107,505.12855 L64.2612011,505.12855 L64.2612011,509.206278 L63.7511916,509.206278 L63.7511916,514.303438 L63.2411821,514.303438 L63.2411821,519.910314 L62.7311725,519.910314 L62.7311725,526.536622 L62.221163,526.536622 L62.221163,535.71151 L61.7111535,535.71151 C61.7111535,542.337818 62.0507136,548.972822 61.7111535,555.590433 C61.664009,556.509222 59.6805701,553.561019 58.1410867,552.022422 C55.3360343,549.218984 53.8060057,545.141256 51.0009533,542.337818 C46.0886908,537.428382 41.9282338,528.790266 38.7607245,522.458894 C35.7133967,514.896797 31.8476396,507.792287 30.0905624,499.011958 L30.0905624,499.011958 Z M496.239276,510.22571 C497.865948,508.51878 498.721586,505.263947 499.809342,503.089686 C500.211307,502.286219 504.032088,491.982875 503.889418,491.875934 C501.85998,490.354732 485.517953,500.064739 485.019066,501.560538 C483.687548,505.552794 487.638831,511.279981 490.629171,512.77429 C491.979256,513.448944 495.167882,510.582636 496.239276,510.22571 L496.239276,510.22571 L496.239276,510.22571 Z M313.655863,93.7877429 C314.44982,89.8202402 314.51199,86.6333943 315.695901,83.083707 C318.560915,74.49361 325.002726,66.7761905 327.42612,57.0881913 C327.681578,51.8509631 326.867915,49.0865847 323.346044,47.9133034 C297.91794,50.2678776 279.908425,64.8206903 265.714967,79.0059791 C263.356884,81.3627048 255.101585,91.0875432 252.454719,91.7488789 C249.042824,92.6013617 244.015323,87.5781233 241.234509,86.651719 C232.813405,87.1222656 231.41824,86.657372 230.014299,81.044843 C230.095727,61.6081389 238.355055,49.7398862 242.254528,34.1509716 C243.122275,25.0205634 248.415354,19.7568609 250.92469,12.2331839 C250.511491,5.74814328 244.300173,2.2965236 239.70448,0 C224.935067,1.58132614 218.097765,12.3262875 207.06387,17.8400598 C204.965111,18.8888356 200.773753,24.4663677 199.413727,24.4663677 C187.187643,25.3490462 180.203037,76.8025038 180.033365,79.5156951 C179.892318,81.7711521 172.492079,85.9244154 171.363203,88.180867 C168.840587,93.2231959 165.210411,97.4863887 163.71306,103.472347 L163.71306,119.783259 L164.22307,119.783259 L164.22307,123.860987 L164.733079,123.860987 C165.052123,131.241833 168.302945,136.603082 169.833174,142.720478 L169.833174,145.778774 L170.343184,145.778774 C170.343184,158.011958 170.173197,170.246322 170.343184,182.478326 C170.445427,189.835556 183.561312,206.190643 192.783603,203.886398 C195.301635,203.257252 196.899778,200.810063 198.903718,199.80867 C204.610416,196.956963 208.571648,197.326803 210.633937,191.143498 C211.157449,189.573865 210.318851,189.224728 211.143947,187.575486 C211.980002,185.904337 218.454306,183.157501 219.814109,180.439462 C222.183012,175.704382 223.98961,170.564117 226.444233,165.657698 C227.953344,162.641213 241.596245,156.811762 245.314585,154.953662 C249.953408,152.635586 251.11258,142.344914 253.474738,137.623318 L257.554814,137.623318 C273.803736,135.905219 284.024559,128.218933 295.805529,122.331839 C304.554944,115.375636 311.047482,106.822138 313.655863,93.7877429 Z" id="Shape-4" fill="#008133" sketch:type="MSShapeGroup"></path>
    </g>
</svg>