<?xml version="1.0" encoding="UTF-8" standalone="no"?>
<svg width="1049px" height="2007px" viewBox="0 0 1049 2007" version="1.1" xmlns="http://www.w3.org/2000/svg" xmlns:xlink="http://www.w3.org/1999/xlink" xmlns:sketch="http://www.bohemiancoding.com/sketch/ns">
    <!-- Generator: Sketch 3.0.4 (8053) - http://www.bohemiancoding.com/sketch -->
    <title>Slice 2</title>
    <desc>Created with Sketch.</desc>
    <defs></defs>
    <g id="Page-1" stroke="none" stroke-width="1" fill="none" fill-rule="evenodd" sketch:type="MSPage">
        <g id="Cierva" sketch:type="MSLayerGroup">
            <path d="M369.492188,1270.46094 L354.90625,1142.67188 C354.90625,1142.67188 719.064737,1140.00301 723.015625,1174.61719 C726.966513,1209.23136 688.289062,1182.25781 688.289062,1182.25781 L607.898438,1247.46094 L460.914062,1278.625 L369.492188,1270.46094 Z" id="Path-14" fill="#FFFFFF" sketch:type="MSShapeGroup"></path>
            <path d="M973.929688,1038.22656 L1014.21094,943.414062 L953.875,957.304688 L933.289062,973.96875 L973.929688,1038.22656 Z" id="Path-15" fill="#FFFFFF" sketch:type="MSShapeGroup"></path>
            <path d="M155.453125,1130.51562 C78.5,1089.35938 42.71875,1006.34375 42.71875,1006.34375 L26.0625,869.34375 L166.171875,579.375 L259.234375,534.9375 L210.625,798.34375 C210.625,798.34375 232.40625,1171.67187 155.453125,1130.51562 Z" id="Path-13" fill="#FFFFFF" sketch:type="MSShapeGroup"></path>
            <path d="M191.031338,433 C183.157256,448.748165 170.64939,461.763896 163.031338,477 C146.30801,510.446656 122.951103,541.160472 107.031338,573 C79.7428464,627.576984 53.0423806,675.966873 32.0313383,739 C23.9068451,763.373479 13.5213861,788.549761 8.03133827,816 L8.03133827,822 C7.03133827,824.333333 7.03133827,826.666667 7.03133827,829 C6.03133827,831 6.03133827,833 6.03133827,835 C5.03133827,837.333333 5.03133827,839.666667 5.03133827,842 C4.03133827,844.666667 4.03133827,847.333333 4.03133827,850 C3.03133827,852.666667 3.03133827,855.333333 3.03133827,858 C2.03133827,861.333333 2.03133827,864.666667 2.03133827,868 C1.03133827,872.666667 1.03133827,877.333333 1.03133827,882 C0.0313382699,894.666667 0.0313382699,907.333333 0.0313382699,920 C1.03133827,924.333333 1.03133827,928.666667 1.03133827,933 C2.03133827,935.666667 2.03133827,938.333333 2.03133827,941 C3.03133827,943.333333 3.03133827,945.666667 3.03133827,948 C4.03133827,950 4.03133827,952 4.03133827,954 C15.0602501,1023.86361 49.068003,1077.07333 76.0313383,1131 C81.9759001,1142.88912 94.0867764,1153.11088 100.031338,1165 C103.985984,1172.90929 124.963152,1208.96591 131.031338,1212 L131.031338,1235 C130.031338,1249.66667 130.031338,1264.33333 130.031338,1279 C131.031338,1281 131.031338,1283 131.031338,1285 C132.031338,1299.66667 132.031338,1314.33333 132.031338,1329 C133.031338,1332.33333 133.031338,1335.66667 133.031338,1339 C134.031338,1341.66667 134.031338,1344.33333 134.031338,1347 C135.031338,1349.33333 135.031338,1351.66667 135.031338,1354 C136.031338,1356 136.031338,1358 136.031338,1360 C144.617127,1402.83681 165.509399,1425.3903 174.031338,1468 L174.031338,1474 C175.031338,1476 175.031338,1478 175.031338,1480 C176.031338,1484 176.031338,1488 176.031338,1492 C177.031338,1498.33333 177.031338,1504.66667 177.031338,1511 C178.031338,1517.66667 178.031338,1524.33333 178.031338,1531 C179.031338,1538 179.031338,1545 179.031338,1552 C180.031338,1558.33333 180.031338,1564.66667 180.031338,1571 C181.031338,1577 181.031338,1583 181.031338,1589 C182.031338,1593 182.031338,1597 182.031338,1601 C187.129011,1637.04809 204.301563,1658.35113 211.031338,1692 L211.031338,1700 C212.031338,1703 212.031338,1706 212.031338,1709 C213.031338,1712 213.031338,1715 213.031338,1718 C214.031338,1721 214.031338,1724 214.031338,1727 C215.031338,1730 215.031338,1733 215.031338,1736 C216.031338,1739 216.031338,1742 216.031338,1745 C217.031338,1748 217.031338,1751 217.031338,1754 C218.031338,1756.66667 218.031338,1759.33333 218.031338,1762 C219.031338,1764.66667 219.031338,1767.33333 219.031338,1770 C220.031338,1772.66667 220.031338,1775.33333 220.031338,1778 C221.031338,1780 221.031338,1782 221.031338,1784 C221.452227,1789.91113 224.006927,1794.90236 225.031338,1799 L225.031338,1812 C226.031338,1825 226.031338,1838 226.031338,1851 C227.578175,1869.99757 219.720741,1879.24239 216.031338,1894 C218.460922,1904.30313 209.499729,1903.12644 208.031338,1909 C202.155789,1932.5022 190.702454,1946.98665 184.031338,1967 C184.593193,1984.22806 194.611993,1997.52688 208.031338,2002 C216.817561,2000.44921 217.646482,2004.80757 222.031338,2007 C229.239336,2008.09913 229.515719,2005.75781 233.031338,2004 C250.9953,2005.97823 252.065361,1998.82989 255.031338,1984 L255.031338,1977 C251.389822,1957.53769 275.45119,1949.09926 272.031338,1932 C270.118304,1922.43483 251.252864,1920.77847 254.031338,1918 C262.529227,1909.50211 276.476247,1903.11018 282.031338,1892 L282.031338,1884 C280.760256,1871.58967 275.536779,1862.02176 273.031338,1852 L273.031338,1817 C272.031338,1814 272.031338,1811 272.031338,1808 C268.641426,1786.63837 262.789665,1768.03331 258.031338,1749 L258.031338,1743 C257.031338,1739 257.031338,1735 257.031338,1731 C256.031338,1729 256.031338,1727 256.031338,1725 C255.179691,1717.03656 252.307489,1710.38075 251.031338,1704 C251.819203,1700.23497 249.480671,1695.24666 249.031338,1693 L249.031338,1638 C248.031338,1632 248.031338,1626 248.031338,1620 C263.802945,1602.5784 232.580435,1538.25451 236.031338,1521 C238.58579,1508.22774 244.390361,1494.20489 247.031338,1481 L247.031338,1474 C248.031338,1472 248.031338,1470 248.031338,1468 C249.031338,1465.66667 249.031338,1463.33333 249.031338,1461 C250.031338,1458.66667 250.031338,1456.33333 250.031338,1454 C251.031338,1452 251.031338,1450 251.031338,1448 C252.031338,1445.33333 252.031338,1442.66667 252.031338,1440 C253.031338,1437.33333 253.031338,1434.66667 253.031338,1432 C254.031338,1429.33333 254.031338,1426.66667 254.031338,1424 C255.869385,1415.66835 256.350384,1405.68095 261.031338,1401 C264.746317,1397.28502 279.013608,1426.94681 280.031338,1430 C294.454786,1473.27034 311.666159,1517.53928 323.031338,1563 L323.031338,1569 C324.031338,1574.33333 324.031338,1579.66667 324.031338,1585 C323.031338,1589 323.031338,1593 323.031338,1597 C324.890706,1632.17172 338.408417,1657.50832 346.031338,1688 L346.031338,1694 C347.031338,1696 347.031338,1698 347.031338,1700 C348.031338,1702.33333 348.031338,1704.66667 348.031338,1707 C349.031338,1710 349.031338,1713 349.031338,1716 C350.031338,1720 350.031338,1724 350.031338,1728 C351.031338,1733 351.031338,1738 351.031338,1743 C352.031338,1769.66667 352.031338,1796.33333 352.031338,1823 C351.031338,1833.66667 351.031338,1844.33333 351.031338,1855 C351.243474,1858.76503 353.582005,1863.75334 354.031338,1866 L354.031338,1873 C355.031338,1875.33333 355.031338,1877.66667 355.031338,1880 C356.031338,1883.33333 356.363017,1886.68321 356.031338,1890 C355.415909,1896.1543 343.823529,1904.41562 341.031338,1910 C336.166869,1919.72894 331.378692,1930.26323 329.031338,1942 C326.982753,1950.97895 329.929584,1954.69474 332.031338,1961 C329.671205,1980.96175 339.16759,1978.04542 354.031338,1983 C357.321597,1984.09675 367.731477,1995.14993 372.031338,1993 C392.997495,1982.51692 391.605129,1945.42621 407.031338,1930 C408.110381,1928.92096 399.942297,1921.26712 401.031338,1918 C401.516047,1916.54587 408.786313,1913.49005 410.031338,1911 L410.031338,1894 C409.368167,1885.50655 406.366276,1878.67469 405.031338,1872 C405.024526,1863.92746 408.684154,1859.73592 410.031338,1853 C408.639198,1840.1146 415.148127,1841.41606 417.031338,1832 C414.812406,1813.12056 405.340347,1800.92703 400.031338,1785 L400.031338,1768 C399.031338,1763.66667 399.031338,1759.33333 399.031338,1755 C398.031338,1750.66667 398.031338,1746.33333 398.031338,1742 C397.031338,1737.33333 397.031338,1732.66667 397.031338,1728 C396.031338,1723 396.031338,1718 396.031338,1713 C395.031338,1706.66667 395.031338,1700.33333 395.031338,1694 C394.031338,1685.33333 394.031338,1676.66667 394.031338,1668 C389.315201,1650.90054 396.364605,1640.66693 400.031338,1626 C400.657746,1608.2675 390.461047,1603.71883 387.031338,1590 L387.031338,1579 C386.031338,1575.66667 386.031338,1572.33333 386.031338,1569 C385.031338,1566.33333 385.031338,1563.66667 385.031338,1561 C384.031338,1558.33333 384.031338,1555.66667 384.031338,1553 C383.031338,1550.66667 383.031338,1548.33333 383.031338,1546 C382.031338,1543.33333 382.031338,1540.66667 382.031338,1538 C381.031338,1535.66667 381.031338,1533.33333 381.031338,1531 C380.031338,1528.66667 380.031338,1526.33333 380.031338,1524 C379.031338,1521.33333 379.031338,1518.66667 379.031338,1516 C378.031338,1513.66667 378.031338,1511.33333 378.031338,1509 C377.031338,1506.33333 377.031338,1503.66667 377.031338,1501 C376.031338,1497.33333 376.031338,1493.66667 376.031338,1490 C375.031338,1482.66667 375.031338,1475.33333 375.031338,1468 C374.031338,1463.33333 374.031338,1458.66667 374.031338,1454 C375.031338,1449 375.031338,1444 375.031338,1439 C376.479658,1434.56698 376.692352,1431.64405 376.031338,1429 L376.031338,1423 C375.031338,1421 375.031338,1419 375.031338,1417 C374.031338,1414.66667 374.031338,1412.33333 374.031338,1410 C373.031338,1408 373.031338,1406 373.031338,1404 C372.031338,1401.66667 372.031338,1399.33333 372.031338,1397 C371.031338,1394.33333 371.031338,1391.66667 371.031338,1389 C370.031338,1385.66667 370.031338,1382.33333 370.031338,1379 C369.031338,1375 369.031338,1371 369.031338,1367 C370.031338,1364.33333 370.031338,1361.66667 370.031338,1359 C371.031338,1356.33333 371.031338,1353.66667 371.031338,1351 C372.031338,1348.66667 372.031338,1346.33333 372.031338,1344 C373.031338,1341.66667 373.031338,1339.33333 373.031338,1337 C374.031338,1335 374.031338,1333 374.031338,1331 C375.031338,1328.66667 375.031338,1326.33333 375.031338,1324 C377.683403,1313.2533 377.979652,1290.51292 388.031338,1288 L435.031338,1288 C446.031338,1289 457.031338,1289 468.031338,1289 C473.364672,1288 478.698005,1288 484.031338,1288 C487.698005,1287 491.364672,1287 495.031338,1287 C504.515939,1286.42345 509.332278,1281.23302 516.031338,1279 C519.031338,1279 522.049687,1278.66871 525.031338,1279 C532.652692,1279.84682 570.964299,1337.93296 580.031338,1347 C591.358516,1358.32718 613.995771,1371.92887 621.031338,1386 L621.031338,1393 C622.031338,1403.66667 622.031338,1414.33333 622.031338,1425 C621.031338,1430.33333 621.031338,1435.66667 621.031338,1441 C620.031338,1444 620.031338,1447 620.031338,1450 C619.031338,1452.33333 619.031338,1454.66667 619.031338,1457 C619.171723,1467.7194 625.087106,1472.22307 627.031338,1480 L627.031338,1487 C626.031338,1489.66667 626.031338,1492.33333 626.031338,1495 C625.985861,1517.8772 612.308489,1533.8914 608.031338,1551 C605.840531,1559.76323 605.74919,1567.84644 603.031338,1576 C600.998132,1582.09962 594.66031,1588.48411 593.031338,1595 C585.42924,1625.40839 575.882482,1648.44657 567.031338,1675 C560.912307,1693.35709 544.680605,1707.40293 540.031338,1726 C538.862951,1737.3885 543.545221,1742.54165 546.031338,1750 C548.256016,1776.8633 529.921007,1777.44133 525.031338,1797 C525.967427,1805.82639 523.470557,1804.87844 525.031338,1808 C525.181102,1819.72257 528.070066,1831.01936 536.031338,1835 L542.031338,1835 C550.029432,1834.72935 549.073616,1832.52114 552.031338,1834 C558.425363,1834.16735 562.44998,1834.89534 566.031338,1834 C587.914253,1832.38434 601.170329,1810.58303 607.031338,1793 C607.031338,1788.66667 607.36369,1784.32057 607.031338,1780 C606.593887,1774.31313 596.32008,1771.15497 595.031338,1766 C594.266735,1762.94159 608.105867,1744.85094 610.031338,1741 C607.611089,1723.63094 613.704391,1720.63474 616.031338,1709 L616.031338,1703 C617.031338,1700.66667 617.031338,1698.33333 617.031338,1696 C618.031338,1694 618.031338,1692 618.031338,1690 C621.105161,1669.9389 628.617558,1653.65512 633.031338,1636 C633.031338,1632.33333 632.699374,1628.65161 633.031338,1625 C633.051559,1624.77757 645.604383,1597.28087 647.031338,1593 C652.009927,1578.06423 652.270151,1562.28356 657.031338,1548 C659.830381,1539.60287 668.2563,1532.55008 672.031338,1525 C674.175847,1520.71098 677.728425,1506.4343 682.031338,1505 C712.391849,1494.87983 728.916959,1479.34314 739.031338,1449 L739.031338,1442 C740.031338,1433 740.031338,1424 740.031338,1415 C732.384599,1385.45903 703.488812,1349.28737 698.031338,1322 L698.031338,1315 C697.031338,1312.66667 697.031338,1310.33333 697.031338,1308 C696.031338,1305.33333 696.031338,1302.66667 696.031338,1300 C695.031338,1296 695.031338,1292 695.031338,1288 C694.031338,1276.33333 694.031338,1264.66667 694.031338,1253 C695.026888,1245.44888 706.734232,1197.35145 712.031338,1200 C717.468932,1202.7188 768.374964,1287.68725 774.031338,1299 C777.554197,1306.04572 786.508479,1311.95428 790.031338,1319 C809.70758,1358.35248 849.217088,1390.3715 874.031338,1440 C878.058231,1448.05379 884.998754,1455.90225 888.031338,1465 L888.031338,1472 C889.031338,1476 889.031338,1480 889.031338,1484 C890.031338,1490.33333 890.031338,1496.66667 890.031338,1503 C891.031338,1509.33333 891.031338,1515.66667 891.031338,1522 C892.031338,1526 892.031338,1530 892.031338,1534 C893.031338,1536.33333 893.031338,1538.66667 893.031338,1541 C894.031338,1543 894.031338,1545 894.031338,1547 C895.031338,1549.33333 895.031338,1551.66667 895.031338,1554 C896.031338,1557 896.031338,1560 896.031338,1563 C897.031338,1565.33333 897.031338,1567.66667 897.031338,1570 C898.031338,1579.66667 898.031338,1589.33333 898.031338,1599 C899.031338,1601.66667 899.031338,1604.33333 899.031338,1607 C900.031338,1609.33333 900.031338,1611.66667 900.031338,1614 C901.031338,1616 901.031338,1618 901.031338,1620 C902.031338,1622 902.031338,1624 902.031338,1626 C903.031338,1628.33333 903.031338,1630.66667 903.031338,1633 C904.031338,1637 904.031338,1641 904.031338,1645 C905.031338,1649.66667 905.031338,1654.33333 905.031338,1659 C906.031338,1664.33333 906.031338,1669.66667 906.031338,1675 C922.23069,1687.49154 890.885466,1736.41651 893.031338,1745 L893.031338,1752 C894.872998,1764.76245 899.324042,1775.17081 902.031338,1786 C908.19142,1826.67093 883.068847,1803.88747 875.031338,1828 L875.031338,1835 C870.575563,1850.8607 876.314912,1848.43285 874.031338,1853 L874.031338,1859 C873.031338,1861.33333 873.031338,1863.66667 873.031338,1866 C871.677979,1881.30124 875.983794,1892.31749 887.031338,1896 L893.031338,1896 C902.899015,1893.36467 902.222207,1897.59543 907.031338,1900 C946.46207,1898.92243 953.930396,1859.40377 962.031338,1827 C964.528136,1817.01281 973.280521,1812.00327 976.031338,1801 L976.031338,1793 C983.398796,1765.53669 964.995385,1762.85619 961.031338,1747 C960.945623,1730.52057 952.801343,1722.85002 950.031338,1709 L950.031338,1696 C951.031338,1688 951.031338,1680 951.031338,1672 C952.031338,1663 952.031338,1654 952.031338,1645 C953.031338,1633 953.031338,1621 953.031338,1609 C952.031338,1603.33333 952.031338,1597.66667 952.031338,1592 C951.031338,1586.66667 951.031338,1581.33333 951.031338,1576 C950.031338,1570.33333 950.031338,1564.66667 950.031338,1559 C949.031338,1552 949.031338,1545 949.031338,1538 C948.031338,1534 948.031338,1530 948.031338,1526 C944.728415,1487.31792 970.786036,1480.98121 978.031338,1452 L978.031338,1446 C979.031338,1443 979.031338,1440 979.031338,1437 C980.031338,1430 980.031338,1423 980.031338,1416 C973.371109,1365.9229 932.319043,1349.43852 923.031338,1303 L923.031338,1286 C924.031338,1283.33333 924.031338,1280.66667 924.031338,1278 C925.031338,1275.33333 925.031338,1272.66667 925.031338,1270 C926.031338,1267.66667 926.031338,1265.33333 926.031338,1263 C927.031338,1261 927.031338,1259 927.031338,1257 C928.031338,1255 928.031338,1253 928.031338,1251 C929.031338,1249 929.031338,1247 929.031338,1245 C931.257575,1208.98933 948.886874,1182.72232 955.031338,1152 L955.031338,1146 C956.031338,1144 956.031338,1142 956.031338,1140 C957.031338,1137.66667 957.031338,1135.33333 957.031338,1133 C958.031338,1131 958.031338,1129 958.031338,1127 C959.031338,1125 959.031338,1123 959.031338,1121 C960.031338,1119 960.031338,1117 960.031338,1115 C961.031338,1113 961.031338,1111 961.031338,1109 C964.203809,1095.82401 965.110764,1083.76172 969.031338,1072 C971.665131,1064.09862 979.912837,1060.237 983.031338,1054 C986.880309,1046.30206 990.078308,1038.90606 994.031338,1031 C998.576342,1021.90999 1009.47537,1014.66791 1013.03134,1004 C1026.78275,962.745766 1035.02892,918.007265 1049.03134,876 L1049.03134,857 C1047.33834,846.39195 1044.72656,833.847611 1037.03134,830 C1031.06828,830.096882 1023.06506,831.932564 1021.03134,836 C1015.57826,846.906152 1011.09801,858.799987 1007.03134,871 C1000.08557,891.837304 965.428517,930.301411 946.031338,940 C941.649091,942.191124 934.845797,953.703615 928.031338,952 C922.983877,950.738135 897.192763,909.161425 890.031338,902 C861.907125,873.875786 805.134153,843.020563 760.031338,834 C758.031338,834 723.437131,827.518842 706.031338,831 C663.28559,839.54915 637.92383,864.369169 603.031338,876 C574.53789,885.497816 543.859505,895.434367 511.031338,902 C507.266303,901.212135 502.278003,903.550667 500.031338,904 L494.031338,904 C491.698005,905 489.364672,905 487.031338,905 C484.364672,906 481.698005,906 479.031338,906 C470.334815,906.711847 463.824291,908.198238 459.031338,907 L443.031338,907 C387.442168,898.625611 338.230197,879.549715 288.031338,867 L281.031338,867 C277.364672,866 273.698005,866 270.031338,866 C261.233855,865.282589 257.70539,863.696207 256.031338,857 L256.031338,848 C255.031338,845.333333 255.031338,842.666667 255.031338,840 C256.031338,834.333333 256.031338,828.666667 256.031338,823 C257.031338,818.666667 257.031338,814.333333 257.031338,810 C258.031338,803.666667 258.031338,797.333333 258.031338,791 C259.031338,788 259.031338,785 259.031338,782 C260.031338,780 260.031338,778 260.031338,776 C261.031338,774 261.031338,772 261.031338,770 C262.031338,768 262.031338,766 262.031338,764 C263.031338,762 263.031338,760 263.031338,758 C264.031338,756 264.031338,754 264.031338,752 C265.031338,750 265.031338,748 265.031338,746 C265.243474,742.234965 267.582005,737.246664 268.031338,735 L268.031338,729 C268.243474,725.234965 270.582005,720.246664 271.031338,718 C270.243474,714.234965 272.582005,709.246664 273.031338,707 C283.083506,655.419694 294.450892,607.74134 310.031338,561 C315.381242,544.95029 328.596161,529.305532 334.031338,513 C337.904623,501.380146 341.753534,489.555609 347.031338,479 C352.003805,469.055066 380.193227,435.647555 377.031338,423 C375.326129,416.179162 356.672221,414.213627 350.031338,412 C338.642094,408.203585 327.505464,390.370629 325.031338,378 L325.031338,371 C324.031338,365.333333 324.031338,359.666667 324.031338,354 C323.031338,347.666667 323.031338,341.333333 323.031338,335 C322.031338,331 322.031338,327 322.031338,323 C320.016761,255.197866 258.311918,348.35971 247.031338,354 C232.654713,376.772165 202.575058,409.912562 191.031338,433 Z M520.031338,1208 C528.015493,1205.4976 538.540479,1202.69817 547.031338,1201 L554.031338,1201 L554.031338,1200 L561.031338,1200 L561.031338,1199 L569.031338,1199 L569.031338,1198 L576.031338,1198 L576.031338,1197 L584.031338,1197 L584.031338,1196 L591.031338,1196 L591.031338,1195 C610.223518,1192.62472 626.723013,1187.32708 644.031338,1183 L650.031338,1183 L650.031338,1182 C650.114672,1182 659.198005,1179.66667 657.031338,1184 C650.156089,1197.7505 598.219713,1226.60388 582.031338,1232 C557.39698,1240.21145 529.530573,1246.70015 503.031338,1252 C499.266303,1251.21214 494.278003,1253.55067 492.031338,1254 L486.031338,1254 L486.031338,1255 L480.031338,1255 L480.031338,1256 L469.031338,1256 L469.031338,1257 L401.031338,1257 L401.031338,1256 C384.757726,1256.49312 383.889258,1259.2896 382.031338,1250 L382.031338,1242 L381.031338,1242 L381.031338,1218 L389.031338,1218 L389.031338,1219 L397.031338,1219 L397.031338,1220 L407.031338,1220 L407.031338,1221 L440.031338,1221 L440.031338,1220 L450.031338,1220 L450.031338,1219 L459.031338,1219 L459.031338,1218 L467.031338,1218 L467.031338,1217 L475.031338,1217 L475.031338,1216 L482.031338,1216 L482.031338,1215 L488.031338,1215 L488.031338,1214 C499.998504,1214.26926 508.647904,1208 520.031338,1208 L520.031338,1208 Z M59.0313383,979 L59.0313383,969 L58.0313383,969 L58.0313383,948 L59.0313383,948 L59.0313383,937 L60.0313383,937 L60.0313383,929 L61.0313383,929 C67.0587901,899.830206 76.7754493,864.36538 88.0144171,829.592796 C101.096623,789.117361 116.241414,749.579849 130.031338,722 C142.886821,696.289034 161.244507,671.573662 174.031338,646 C177.848886,638.364905 211.590364,585.279513 219.031338,589 C219.524291,589.246476 214.628573,605.208294 214.031338,607 C207.736455,625.88465 199.410287,645.863154 193.031338,665 C175.369456,717.985647 161.670417,775.804608 150.031338,834 C150.819203,837.765035 148.480671,842.753336 148.031338,845 L148.031338,851 L147.031338,851 L147.031338,857 L146.031338,857 C146.819203,860.765035 144.480671,865.753336 144.031338,868 L144.031338,874 L143.031338,874 L143.031338,880 L142.031338,880 L142.031338,887 L141.031338,887 L141.031338,893 L140.031338,893 L140.031338,899 L139.031338,899 L139.031338,905 L138.031338,905 L138.031338,912 L137.031338,912 L137.031338,918 L136.031338,918 L136.031338,925 L135.031338,925 L135.031338,931 L134.031338,931 L134.031338,938 L133.031338,938 L133.031338,945 L132.031338,945 L132.031338,952 L131.031338,952 L131.031338,959 L130.031338,959 L130.031338,967 L129.031338,967 L129.031338,974 L128.031338,974 L128.031338,982 L127.031338,982 L127.031338,991 L126.031338,991 L126.031338,999 L125.031338,999 L125.031338,1009 L124.031338,1009 L124.031338,1020 L123.031338,1020 L123.031338,1033 L122.031338,1033 L122.031338,1051 L121.031338,1051 C121.031338,1064 121.69713,1077.01706 121.031338,1090 C120.9389,1091.80255 117.049877,1086.01854 114.031338,1083 C108.531338,1077.5 105.531338,1069.5 100.031338,1064 C90.399631,1054.36829 82.2420247,1037.42137 76.0313383,1025 C70.0562974,1010.1641 62.4765232,996.225925 59.0313383,979 Z M973.031338,1001 C976.220833,997.651213 977.898522,991.265632 980.031338,987 C980.81949,985.423696 988.311078,965.209804 988.031338,965 C984.052122,962.015588 952.009529,981.065427 951.031338,984 C948.420567,991.832314 956.168036,1003.06835 962.031338,1006 C964.678516,1007.32359 970.930606,1001.70024 973.031338,1001 L973.031338,1001 Z M580.031338,240 C597.186733,226.352788 609.916963,209.571879 615.031338,184 C616.588089,176.216248 616.709989,169.964049 619.031338,163 C624.648909,146.147288 637.279673,131.006661 642.031338,112 C642.532227,101.725203 640.936838,96.3018333 634.031338,94 C584.173243,98.6193844 548.861128,127.170211 521.031338,155 C516.407733,159.623606 500.221175,178.702541 495.031338,180 C488.341473,181.672466 478.483812,171.817491 473.031338,170 C456.519678,170.923154 453.784111,170.011091 451.031338,159 C451.190996,120.86758 467.385456,97.5835304 475.031338,67 C476.732771,49.0872637 487.111162,38.7605277 492.031338,24 C491.221159,11.2771491 479.042331,4.50549644 470.031338,0 C441.072245,3.10236713 427.666022,24.1826579 406.031338,35 C401.9162,37.057569 393.698005,48 391.031338,48 L391.031338,49 C367.059072,49.7317065 353.364022,150.677053 353.031338,156 C352.75478,160.424929 338.244778,168.57312 336.031338,173 C331.085124,182.892428 323.967266,191.256287 321.031338,203 L321.031338,235 L322.031338,235 L322.031338,243 L323.031338,243 C323.656902,257.480311 330.030944,267.998422 333.031338,280 L333.031338,286 L334.031338,286 C334.031338,310 333.698037,334.002314 334.031338,358 C334.23181,372.433979 359.948752,404.520647 378.031338,400 C382.968564,398.765694 386.102118,393.96461 390.031338,392 C401.220734,386.405302 408.98771,387.130884 413.031338,375 C414.057814,371.920574 412.413533,371.23561 414.031338,368 C415.670633,364.721412 428.365109,359.332458 431.031338,354 C435.67616,344.710357 439.218443,334.62579 444.031338,325 C446.990325,319.082027 473.740612,307.645363 481.031338,304 C490.126899,299.452219 492.399743,279.26319 497.031338,270 L505.031338,270 L505.031338,269 C536.891375,266.629301 556.931828,251.549755 580.031338,240 L580.031338,240 Z" id="Shape-6" fill="#12602C" sketch:type="MSShapeGroup"></path>
        </g>
    </g>
</svg>