<?xml version="1.0" encoding="UTF-8" standalone="no"?>
<svg width="860px" height="1644px" viewBox="0 0 860 1644" version="1.1" xmlns="http://www.w3.org/2000/svg" xmlns:xlink="http://www.w3.org/1999/xlink" xmlns:sketch="http://www.bohemiancoding.com/sketch/ns">
    <!-- Generator: Sketch 3.0.4 (8053) - http://www.bohemiancoding.com/sketch -->
    <title>logo-vector 2</title>
    <desc>Created with Sketch.</desc>
    <defs></defs>
    <g id="Page-1" stroke="none" stroke-width="1" fill="none" fill-rule="evenodd" sketch:type="MSPage">
        <path d="M156.905148,354.684604 C150.457257,367.584446 140.214878,378.246061 133.976644,390.726457 C120.282327,418.123718 101.155937,443.282419 88.1196378,469.363229 C65.7737707,514.069039 43.9094236,553.706796 26.7040038,605.339312 C20.0510585,625.304435 11.5466645,645.927159 7.05100095,668.412556 L7.05100095,673.327354 C6.23212583,675.238665 6.23212583,677.149975 6.23212583,679.061286 C5.41325071,680.699552 5.41325071,682.337818 5.41325071,683.976084 C4.5943756,685.887394 4.5943756,687.798705 4.5943756,689.710015 C3.77550048,691.89437 3.77550048,694.078724 3.77550048,696.263079 C2.95662536,698.447434 2.95662536,700.631789 2.95662536,702.816143 C2.13775024,705.546587 2.13775024,708.27703 2.13775024,711.007474 C1.31887512,714.830095 1.31887512,718.652715 1.31887512,722.475336 C0.5,732.851021 0.5,743.226707 0.5,753.602392 C1.31887512,757.151968 1.31887512,760.701545 1.31887512,764.251121 C2.13775024,766.435476 2.13775024,768.619831 2.13775024,770.804185 C2.95662536,772.715496 2.95662536,774.626806 2.95662536,776.538117 C3.77550048,778.176383 3.77550048,779.814649 3.77550048,781.452915 C12.8068019,838.680506 40.6549047,882.266345 62.7345091,926.439462 C67.6023628,936.178236 77.5196581,944.551211 82.3875119,954.289985 C85.6258727,960.768747 102.803554,990.303912 107.772641,992.789238 L107.772641,1011.6293 C106.953765,1023.64325 106.953765,1035.6572 106.953765,1047.67115 C107.772641,1049.30942 107.772641,1050.94768 107.772641,1052.58595 C108.591516,1064.5999 108.591516,1076.61385 108.591516,1088.6278 C109.410391,1091.35825 109.410391,1094.08869 109.410391,1096.81913 C110.229266,1099.00349 110.229266,1101.18784 110.229266,1103.3722 C111.048141,1105.28351 111.048141,1107.19482 111.048141,1109.10613 C111.867016,1110.74439 111.867016,1112.38266 111.867016,1114.02093 C118.897705,1149.10997 136.005867,1167.58428 142.984271,1202.48729 L142.984271,1207.40209 C143.803146,1209.04036 143.803146,1210.67862 143.803146,1212.31689 C144.622021,1215.59342 144.622021,1218.86996 144.622021,1222.14649 C145.440896,1227.33433 145.440896,1232.52217 145.440896,1237.71001 C146.259771,1243.1709 146.259771,1248.63179 146.259771,1254.09268 C147.078646,1259.82661 147.078646,1265.56054 147.078646,1271.29447 C147.897521,1276.48231 147.897521,1281.67015 147.897521,1286.858 C148.716397,1291.7728 148.716397,1296.68759 148.716397,1301.60239 C149.535272,1304.87892 149.535272,1308.15546 149.535272,1311.43199 C153.709629,1340.96017 167.771805,1358.41019 173.28265,1385.97309 L173.28265,1392.52616 C174.101525,1394.98356 174.101525,1397.44096 174.101525,1399.89836 C174.9204,1402.35575 174.9204,1404.81315 174.9204,1407.27055 C175.739276,1409.72795 175.739276,1412.18535 175.739276,1414.64275 C176.558151,1417.10015 176.558151,1419.55755 176.558151,1422.01495 C177.377026,1424.47235 177.377026,1426.92975 177.377026,1429.38714 C178.195901,1431.84454 178.195901,1434.30194 178.195901,1436.75934 C179.014776,1438.9437 179.014776,1441.12805 179.014776,1443.31241 C179.833651,1445.49676 179.833651,1447.68112 179.833651,1449.86547 C180.652526,1452.04983 180.652526,1454.23418 180.652526,1456.41854 C181.471401,1458.0568 181.471401,1459.69507 181.471401,1461.33333 C181.816057,1466.17533 183.908037,1470.26381 184.746902,1473.62033 L184.746902,1484.26906 C185.565777,1494.91779 185.565777,1505.56652 185.565777,1516.21525 C186.832443,1531.77678 180.398186,1539.34952 177.377026,1551.43797 C179.366551,1559.8776 172.028453,1558.91373 170.826025,1563.72496 C166.014684,1582.97639 156.635833,1594.84108 151.173022,1611.23468 C151.633111,1625.34675 159.837256,1636.24026 170.826025,1639.90433 C178.020844,1638.63403 178.699626,1642.20411 182.290276,1644 C188.192727,1644.90033 188.419049,1642.98248 191.297903,1641.5426 C206.008144,1643.16304 206.884391,1637.30759 209.313155,1625.15994 L209.313155,1619.42601 C206.331208,1603.48379 226.034464,1596.57159 223.234032,1582.56502 C221.667496,1574.72987 206.219057,1573.3731 208.49428,1571.09716 C215.45299,1564.13626 226.873857,1558.90042 231.422784,1549.7997 L231.422784,1543.24664 C230.381926,1533.08093 226.104551,1525.24354 224.052908,1517.03438 L224.052908,1488.36472 C223.234032,1485.90732 223.234032,1483.44993 223.234032,1480.99253 C220.458117,1463.49451 215.666256,1448.25449 211.769781,1432.66368 L211.769781,1427.74888 C210.950906,1424.47235 210.950906,1421.19581 210.950906,1417.91928 C210.132031,1416.28102 210.132031,1414.64275 210.132031,1413.00448 C209.434638,1406.48137 207.082663,1401.02938 206.037655,1395.80269 C206.682818,1392.71863 204.767852,1388.63254 204.399905,1386.79223 L204.399905,1341.73991 C203.58103,1336.82511 203.58103,1331.91031 203.58103,1326.99552 C216.496006,1312.72491 190.92867,1260.03509 193.754528,1245.90135 C195.846305,1235.43917 200.599524,1223.95258 202.762154,1213.13602 L202.762154,1207.40209 C203.58103,1205.76383 203.58103,1204.12556 203.58103,1202.48729 C204.399905,1200.57598 204.399905,1198.66467 204.399905,1196.75336 C205.21878,1194.84205 205.21878,1192.93074 205.21878,1191.01943 C206.037655,1189.38117 206.037655,1187.7429 206.037655,1186.10463 C206.85653,1183.92028 206.85653,1181.73592 206.85653,1179.55157 C207.675405,1177.36721 207.675405,1175.18286 207.675405,1172.99851 C208.49428,1170.81415 208.49428,1168.6298 208.49428,1166.44544 C209.999411,1159.62071 210.393289,1151.43971 214.226406,1147.60538 C217.26851,1144.56232 228.951639,1168.85927 229.785033,1171.36024 C241.596036,1206.80441 255.690001,1243.06656 264.996663,1280.30493 L264.996663,1285.21973 C265.815539,1289.58844 265.815539,1293.95715 265.815539,1298.32586 C264.996663,1301.60239 264.996663,1304.87892 264.996663,1308.15546 C266.519253,1336.96578 277.588571,1357.71982 283.830791,1382.69656 L283.830791,1387.61136 C284.649666,1389.24963 284.649666,1390.88789 284.649666,1392.52616 C285.468541,1394.43747 285.468541,1396.34878 285.468541,1398.26009 C286.287417,1400.71749 286.287417,1403.17489 286.287417,1405.63229 C287.106292,1408.90882 287.106292,1412.18535 287.106292,1415.46188 C287.925167,1419.55755 287.925167,1423.65321 287.925167,1427.74888 C288.744042,1449.59243 288.744042,1471.43597 288.744042,1493.27952 C287.925167,1502.01694 287.925167,1510.75436 287.925167,1519.49178 C288.098879,1522.57584 290.013845,1526.66193 290.381792,1528.50224 L290.381792,1534.23617 C291.200667,1536.14748 291.200667,1538.05879 291.200667,1539.9701 C292.019542,1542.70055 292.291146,1545.44454 292.019542,1548.16143 C291.515582,1553.20262 282.022871,1559.96974 279.736416,1564.5441 C275.753023,1572.51339 271.832104,1581.14238 269.909914,1590.75635 C268.232379,1598.1113 270.645465,1601.15503 272.36654,1606.31988 C270.433885,1622.67121 278.210238,1620.28234 290.381792,1624.34081 C293.076103,1625.23919 301.600495,1634.29322 305.121544,1632.53214 C322.290208,1623.9451 321.150035,1593.56287 333.782173,1580.92676 C334.665775,1580.04288 327.977134,1573.77337 328.868923,1571.09716 C329.265839,1569.90604 335.219278,1567.40291 336.238799,1565.36323 L336.238799,1551.43797 C335.695744,1544.4807 333.23757,1538.8845 332.144423,1533.41704 C332.138845,1526.80455 335.135623,1523.37113 336.238799,1517.85351 C335.09881,1507.29865 340.428809,1508.36472 341.970925,1500.65172 C340.153896,1485.18695 332.397463,1475.19882 328.050048,1462.15247 L328.050048,1448.2272 C327.231173,1444.67763 327.231173,1441.12805 327.231173,1437.57848 C326.412297,1434.0289 326.412297,1430.47932 326.412297,1426.92975 C325.593422,1423.10713 325.593422,1419.2845 325.593422,1415.46188 C324.774547,1411.36622 324.774547,1407.27055 324.774547,1403.17489 C323.955672,1397.98705 323.955672,1392.7992 323.955672,1387.61136 C323.136797,1380.51221 323.136797,1373.41305 323.136797,1366.3139 C319.27487,1352.30717 325.047451,1343.92448 328.050048,1331.91031 C328.562998,1317.38504 320.213174,1313.65907 317.404671,1302.42152 L317.404671,1293.41106 C316.585796,1290.68062 316.585796,1287.95017 316.585796,1285.21973 C315.766921,1283.03538 315.766921,1280.85102 315.766921,1278.66667 C314.948046,1276.48231 314.948046,1274.29796 314.948046,1272.1136 C314.129171,1270.20229 314.129171,1268.29098 314.129171,1266.37967 C313.310296,1264.19532 313.310296,1262.01096 313.310296,1259.82661 C312.49142,1257.9153 312.49142,1256.00399 312.49142,1254.09268 C311.672545,1252.18137 311.672545,1250.27005 311.672545,1248.35874 C310.85367,1246.17439 310.85367,1243.99003 310.85367,1241.80568 C310.034795,1239.89437 310.034795,1237.98306 310.034795,1236.07175 C309.21592,1233.88739 309.21592,1231.70304 309.21592,1229.51868 C308.397045,1226.5152 308.397045,1223.51171 308.397045,1220.50822 C307.57817,1214.50125 307.57817,1208.49427 307.57817,1202.48729 C306.759295,1198.66467 306.759295,1194.84205 306.759295,1191.01943 C307.57817,1186.92377 307.57817,1182.8281 307.57817,1178.73244 C308.764162,1175.1012 308.938332,1172.70694 308.397045,1170.54111 L308.397045,1165.62631 C307.57817,1163.98804 307.57817,1162.34978 307.57817,1160.71151 C306.759295,1158.8002 306.759295,1156.88889 306.759295,1154.97758 C305.940419,1153.33931 305.940419,1151.70105 305.940419,1150.06278 C305.121544,1148.15147 305.121544,1146.24016 305.121544,1144.32885 C304.302669,1142.14449 304.302669,1139.96014 304.302669,1137.77578 C303.483794,1135.04534 303.483794,1132.3149 303.483794,1129.58445 C302.664919,1126.30792 302.664919,1123.03139 302.664919,1119.75486 C303.483794,1117.5705 303.483794,1115.38615 303.483794,1113.20179 C304.302669,1111.01744 304.302669,1108.83308 304.302669,1106.64873 C305.121544,1104.73742 305.121544,1102.82611 305.121544,1100.9148 C305.940419,1099.00349 305.940419,1097.09218 305.940419,1095.18087 C306.759295,1093.5426 306.759295,1091.90433 306.759295,1090.26607 C307.57817,1088.35476 307.57817,1086.44345 307.57817,1084.53214 C309.74988,1075.72916 309.99247,1057.10177 318.223546,1055.04335 L356.710677,1055.04335 C365.718303,1055.86248 374.725929,1055.86248 383.733556,1055.86248 C388.10089,1055.04335 392.468224,1055.04335 396.835558,1055.04335 C399.8381,1054.22422 402.840642,1054.22422 405.843184,1054.22422 C413.609888,1053.75195 417.553868,1049.50029 423.039561,1047.67115 C425.496187,1047.67115 427.967838,1047.39978 430.409438,1047.67115 C436.650374,1048.36481 468.022796,1095.94509 475.447569,1103.3722 C484.723113,1112.65066 503.260198,1123.79225 509.021449,1135.31839 L509.021449,1141.05232 C509.840324,1149.78974 509.840324,1158.52715 509.840324,1167.26457 C509.021449,1171.63328 509.021449,1176.00199 509.021449,1180.3707 C508.202574,1182.8281 508.202574,1185.2855 508.202574,1187.7429 C507.383699,1189.65421 507.383699,1191.56552 507.383699,1193.47683 C507.498656,1202.25745 512.342616,1205.94655 513.9347,1212.31689 L513.9347,1218.05082 C513.115825,1220.23518 513.115825,1222.41953 513.115825,1224.60389 C513.078585,1243.34335 501.878525,1256.46111 498.376072,1270.47534 C496.582075,1277.65359 496.507278,1284.27481 494.281697,1290.95366 C492.616755,1295.95006 487.42687,1301.17981 486.092946,1306.51719 C479.867777,1331.42571 472.050174,1350.29704 464.802193,1372.04783 C459.79147,1387.08473 446.499733,1398.59015 442.692564,1413.82362 C441.735801,1423.15231 445.569996,1427.37343 447.605815,1433.48281 C449.427548,1455.48743 434.413465,1455.96091 430.409438,1471.98206 C431.175978,1479.21205 429.131353,1478.43555 430.409438,1480.99253 C430.532075,1490.59487 432.897776,1499.84845 439.417064,1503.10912 L444.330315,1503.10912 C450.879755,1502.88742 450.09706,1501.0786 452.519066,1502.28999 C457.754974,1502.42707 461.050633,1503.02339 463.983317,1502.28999 C481.902692,1500.96655 492.757762,1483.10837 497.557197,1468.70553 C497.557197,1465.15595 497.829352,1461.59592 497.557197,1458.0568 C497.198979,1453.3985 488.786015,1450.81154 487.730696,1446.58894 C487.104581,1444.08369 498.437102,1429.26505 500.013823,1426.11061 C498.031941,1411.88304 503.021594,1409.42875 504.927073,1399.89836 L504.927073,1394.98356 C505.745949,1393.07225 505.745949,1391.16094 505.745949,1389.24963 C506.564824,1387.61136 506.564824,1385.97309 506.564824,1384.33483 C509.081901,1367.90212 515.233616,1354.56354 518.84795,1340.10164 C518.84795,1337.09816 518.576113,1334.08233 518.84795,1331.09118 C518.864509,1330.90898 529.143704,1308.38552 530.312202,1304.87892 C534.389045,1292.64454 534.602136,1279.71807 538.500953,1268.01794 C540.79302,1261.13957 547.692795,1255.36239 550.78408,1249.17788 C552.540165,1245.6646 555.449283,1233.9701 558.972831,1232.79522 C583.834298,1224.50545 597.3663,1211.77883 605.648713,1186.92377 L605.648713,1181.18984 C606.467588,1173.81764 606.467588,1166.44544 606.467588,1159.07324 C600.205863,1134.87526 576.543822,1105.24586 572.074833,1082.89387 L572.074833,1077.15994 C571.255958,1075.24863 571.255958,1073.33732 571.255958,1071.42601 C570.437083,1069.24165 570.437083,1067.0573 570.437083,1064.87294 C569.618208,1061.59641 569.618208,1058.31988 569.618208,1055.04335 C568.799333,1045.4868 568.799333,1035.93024 568.799333,1026.37369 C569.614564,1020.18832 579.201416,980.790124 583.539085,982.959641 C587.991795,985.186698 629.677478,1054.78717 634.309342,1064.05381 C637.194124,1069.82519 644.526562,1074.66509 647.411344,1080.43647 C663.523729,1112.67139 695.877082,1138.89923 716.196854,1179.55157 C719.494377,1186.14869 725.177798,1192.57762 727.661106,1200.0299 L727.661106,1205.76383 C728.479981,1209.04036 728.479981,1212.31689 728.479981,1215.59342 C729.298856,1220.78127 729.298856,1225.96911 729.298856,1231.15695 C730.117731,1236.34479 730.117731,1241.53264 730.117731,1246.72048 C730.936606,1249.99701 730.936606,1253.27354 730.936606,1256.55007 C731.755481,1258.46139 731.755481,1260.3727 731.755481,1262.28401 C732.574357,1263.92227 732.574357,1265.56054 732.574357,1267.1988 C733.393232,1269.11011 733.393232,1271.02143 733.393232,1272.93274 C734.212107,1275.39013 734.212107,1277.84753 734.212107,1280.30493 C735.030982,1282.21624 735.030982,1284.12755 735.030982,1286.03886 C735.849857,1293.95715 735.849857,1301.87544 735.849857,1309.79372 C736.668732,1311.97808 736.668732,1314.16243 736.668732,1316.34679 C737.487607,1318.2581 737.487607,1320.16941 737.487607,1322.08072 C738.306482,1323.71898 738.306482,1325.35725 738.306482,1326.99552 C739.125357,1328.63378 739.125357,1330.27205 739.125357,1331.91031 C739.944233,1333.82162 739.944233,1335.73293 739.944233,1337.64425 C740.763108,1340.92078 740.763108,1344.19731 740.763108,1347.47384 C741.581983,1351.29646 741.581983,1355.11908 741.581983,1358.9417 C742.400858,1363.31041 742.400858,1367.67912 742.400858,1372.04783 C755.666104,1382.28006 729.99828,1422.35613 731.755481,1429.38714 L731.755481,1435.12108 C733.26357,1445.57522 736.90842,1454.10106 739.125357,1462.9716 C744.169695,1496.2865 723.597445,1477.62382 717.015729,1497.37519 L717.015729,1503.10912 C713.367006,1516.10114 718.066816,1514.11241 716.196854,1517.85351 L716.196854,1522.76831 C715.377979,1524.67962 715.377979,1526.59093 715.377979,1528.50224 C714.269747,1541.03599 717.795671,1550.05976 726.842231,1553.07623 L731.755481,1553.07623 C739.835877,1550.91755 739.281656,1554.38311 743.219733,1556.35277 C775.508578,1555.47009 781.624204,1523.09905 788.257865,1496.55605 C790.30243,1488.37522 797.469541,1484.27173 799.722116,1475.25859 L799.722116,1468.70553 C805.755144,1446.20943 790.685049,1444.01374 787.43899,1431.02541 C787.368799,1417.52657 780.699651,1411.24337 778.431363,1399.89836 L778.431363,1389.24963 C779.250238,1382.69656 779.250238,1376.1435 779.250238,1369.59043 C780.069113,1362.21824 780.069113,1354.84604 780.069113,1347.47384 C780.887989,1337.64425 780.887989,1327.81465 780.887989,1317.98505 C780.069113,1313.3433 780.069113,1308.70154 780.069113,1304.05979 C779.250238,1299.69108 779.250238,1295.32237 779.250238,1290.95366 C778.431363,1286.31191 778.431363,1281.67015 778.431363,1277.0284 C777.612488,1271.29447 777.612488,1265.56054 777.612488,1259.82661 C776.793613,1256.55007 776.793613,1253.27354 776.793613,1249.99701 C774.088931,1218.31124 795.426869,1213.12063 801.359867,1189.38117 L801.359867,1184.46637 C802.178742,1182.00897 802.178742,1179.55157 802.178742,1177.09417 C802.997617,1171.36024 802.997617,1165.62631 802.997617,1159.89238 C797.543721,1118.87257 763.927205,1105.36967 756.321735,1067.33034 L756.321735,1053.40508 C757.14061,1051.22073 757.14061,1049.03637 757.14061,1046.85202 C757.959485,1044.66766 757.959485,1042.48331 757.959485,1040.29895 C758.77836,1038.38764 758.77836,1036.47633 758.77836,1034.56502 C759.597235,1032.92676 759.597235,1031.28849 759.597235,1029.65022 C760.416111,1028.01196 760.416111,1026.37369 760.416111,1024.73543 C761.234986,1023.09716 761.234986,1021.45889 761.234986,1019.82063 C763.057996,990.323096 777.49419,968.806923 782.525739,943.641256 L782.525739,938.726457 C783.344614,937.088191 783.344614,935.449925 783.344614,933.811659 C784.163489,931.900349 784.163489,929.989038 784.163489,928.077728 C784.982364,926.439462 784.982364,924.801196 784.982364,923.16293 C785.801239,921.524664 785.801239,919.886398 785.801239,918.248132 C786.620114,916.609865 786.620114,914.971599 786.620114,913.333333 C787.43899,911.695067 787.43899,910.056801 787.43899,908.418535 C790.036847,897.625648 790.779529,887.745029 793.98999,878.110613 C796.146738,871.638334 802.900579,868.475153 805.454242,863.366218 C808.606068,857.06058 811.22483,851.002274 814.461868,844.526158 C818.183659,837.080232 827.1086,831.148004 830.020496,822.409567 C841.281184,788.61686 848.033765,751.970076 859.5,717.560538 L859.5,701.99701 C858.113645,693.307606 855.974924,683.032124 849.673499,679.880419 C844.790501,679.959778 838.236858,681.463446 836.571497,684.795217 C832.106109,693.728806 828.437341,703.47144 825.107245,713.464873 C819.419528,730.533397 791.03973,762.040617 775.155863,769.985052 C771.56735,771.779874 765.996301,781.210136 760.416111,779.814649 C756.28287,778.781013 735.163169,744.724157 729.298856,738.857997 C706.268637,715.820525 659.778663,690.545992 622.845091,683.156951 C621.20734,683.156951 592.879004,677.84802 578.625834,680.699552 C543.622404,687.702442 522.85429,708.033341 494.281697,717.560538 C470.949121,725.340513 445.827355,733.47987 418.945186,738.857997 C415.862093,738.212631 411.777297,740.1282 409.93756,740.496263 L405.024309,740.496263 C403.1136,741.315396 401.202892,741.315396 399.292183,741.315396 C397.108516,742.134529 394.924849,742.134529 392.741182,742.134529 C385.619815,742.717627 380.28851,743.935179 376.36368,742.953662 L363.261678,742.953662 C317.741089,736.093924 277.442631,720.468227 236.336034,710.188341 L230.603908,710.188341 C227.601366,709.369208 224.598824,709.369208 221.596282,709.369208 C214.392242,708.781552 211.50287,707.482095 210.132031,701.99701 L210.132031,694.624813 C209.313155,692.440458 209.313155,690.256104 209.313155,688.071749 C210.132031,683.429995 210.132031,678.788241 210.132031,674.146487 C210.950906,670.596911 210.950906,667.047334 210.950906,663.497758 C211.769781,658.309915 211.769781,653.122073 211.769781,647.93423 C212.588656,645.476831 212.588656,643.019432 212.588656,640.562033 C213.407531,638.923767 213.407531,637.285501 213.407531,635.647235 C214.226406,634.008969 214.226406,632.370703 214.226406,630.732436 C215.045281,629.09417 215.045281,627.455904 215.045281,625.817638 C215.864156,624.179372 215.864156,622.541106 215.864156,620.90284 C216.683031,619.264574 216.683031,617.626308 216.683031,615.988042 C217.501907,614.349776 217.501907,612.71151 217.501907,611.073244 C217.675619,607.989179 219.590584,603.903097 219.958532,602.06278 L219.958532,597.147982 C220.132244,594.063918 222.04721,589.977836 222.415157,588.137519 C221.769995,585.053454 223.68496,580.967372 224.052908,579.127055 C232.284377,536.875923 241.592847,497.821008 254.351287,459.533632 C258.73219,446.386784 269.553558,433.571647 274.00429,420.215247 C277.176026,410.697041 280.327804,401.011171 284.649666,392.364723 C288.721496,384.2185 311.805112,356.853304 309.21592,346.493274 C307.819566,340.9061 292.544345,339.296066 287.106292,337.48281 C277.779923,334.373041 268.660414,319.765478 266.634414,309.632287 L266.634414,303.898356 C265.815539,299.256602 265.815539,294.614848 265.815539,289.973094 C264.996663,284.785252 264.996663,279.597409 264.996663,274.409567 C264.177788,271.133034 264.177788,267.856502 264.177788,264.57997 C262.528101,209.041002 211.99954,285.352947 202.762154,289.973094 C190.989494,308.626527 166.358012,335.77292 156.905148,354.684604 Z M426.315062,989.512706 C432.853088,987.462907 441.471737,985.169803 448.42469,983.778774 L454.156816,983.778774 L454.156816,982.959641 L459.888942,982.959641 L459.888942,982.140508 L466.439943,982.140508 L466.439943,981.321375 L472.172069,981.321375 L472.172069,980.502242 L478.72307,980.502242 L478.72307,979.683109 L484.455195,979.683109 L484.455195,978.863976 C500.171194,976.918309 513.68222,972.578835 527.855577,969.03438 L532.768827,969.03438 L532.768827,968.215247 C532.837067,968.215247 540.275183,966.303936 538.500953,969.853513 C532.870982,981.117001 490.341577,1004.75175 477.085319,1009.1719 C456.912856,1015.89817 434.093749,1021.21328 412.394185,1025.55456 C409.311092,1024.90919 405.226296,1026.82476 403.386559,1027.19283 L398.473308,1027.19283 L398.473308,1028.01196 L393.560057,1028.01196 L393.560057,1028.83109 L384.552431,1028.83109 L384.552431,1029.65022 L328.868923,1029.65022 L328.868923,1028.83109 C315.542867,1029.23502 314.8317,1031.52571 313.310296,1023.91629 L313.310296,1017.36323 L312.49142,1017.36323 L312.49142,997.704036 L319.042421,997.704036 L319.042421,998.523169 L325.593422,998.523169 L325.593422,999.342302 L333.782173,999.342302 L333.782173,1000.16143 L360.805052,1000.16143 L360.805052,999.342302 L368.993804,999.342302 L368.993804,998.523169 L376.36368,998.523169 L376.36368,997.704036 L382.914681,997.704036 L382.914681,996.884903 L389.465682,996.884903 L389.465682,996.06577 L395.197807,996.06577 L395.197807,995.246637 L400.111058,995.246637 L400.111058,994.427504 C409.910672,994.648064 416.993451,989.512706 426.315062,989.512706 L426.315062,989.512706 Z M48.813632,801.931241 L48.813632,793.73991 L47.9947569,793.73991 L47.9947569,776.538117 L48.813632,776.538117 L48.813632,767.527653 L49.6325071,767.527653 L49.6325071,760.974589 L50.4513823,760.974589 C55.3871126,737.080647 63.3438431,708.030236 72.5471542,679.546864 C83.2598471,646.392099 95.6615394,614.005616 106.953765,591.414051 C117.480801,570.353349 132.513453,550.108172 142.984271,529.15994 C146.110365,522.905782 173.740423,479.421784 179.833651,482.469357 C180.237318,482.671254 176.228337,495.746107 175.739276,497.213752 C170.584552,512.682793 163.76646,529.047845 158.542898,544.723468 C144.080022,588.125761 132.86222,635.487182 123.331268,683.156951 C123.976431,686.241015 122.061465,690.327097 121.693518,692.167414 L121.693518,697.082212 L120.874643,697.082212 L120.874643,701.99701 L120.055767,701.99701 C120.70093,705.081075 118.785965,709.167157 118.418017,711.007474 L118.418017,715.922272 L117.599142,715.922272 L117.599142,720.83707 L116.780267,720.83707 L116.780267,726.571001 L115.961392,726.571001 L115.961392,731.4858 L115.142517,731.4858 L115.142517,736.400598 L114.323642,736.400598 L114.323642,741.315396 L113.504766,741.315396 L113.504766,747.049327 L112.685891,747.049327 L112.685891,751.964126 L111.867016,751.964126 L111.867016,757.698057 L111.048141,757.698057 L111.048141,762.612855 L110.229266,762.612855 L110.229266,768.346786 L109.410391,768.346786 L109.410391,774.080717 L108.591516,774.080717 L108.591516,779.814649 L107.772641,779.814649 L107.772641,785.54858 L106.953765,785.54858 L106.953765,792.101644 L106.13489,792.101644 L106.13489,797.835575 L105.316015,797.835575 L105.316015,804.38864 L104.49714,804.38864 L104.49714,811.760837 L103.678265,811.760837 L103.678265,818.313901 L102.85939,818.313901 L102.85939,826.505232 L102.040515,826.505232 L102.040515,835.515695 L101.22164,835.515695 L101.22164,846.164425 L100.402765,846.164425 L100.402765,860.908819 L99.5838894,860.908819 C99.5838894,871.557549 100.12909,882.220253 99.5838894,892.855007 C99.5081938,894.331536 96.3235696,889.593661 93.8517636,887.121076 C89.3479504,882.615845 86.8913251,876.06278 82.3875119,871.557549 C74.5003465,863.667899 67.8202857,849.786117 62.7345091,839.61136 C57.8416968,827.458782 51.6348082,816.041565 48.813632,801.931241 Z M797.265491,819.952167 C799.877288,817.209065 801.251107,811.978425 802.997617,808.484305 C803.643015,807.193102 809.777689,790.635236 809.548618,790.463378 C806.290137,788.018748 780.051255,803.6231 779.250238,806.026906 C777.112343,812.442613 783.456553,821.64642 788.257865,824.047833 C790.425572,825.132028 795.545253,820.525761 797.265491,819.952167 L797.265491,819.952167 Z M475.447569,196.591928 C489.495695,185.413046 499.920163,171.667249 504.108198,150.720478 C505.382982,144.34455 505.482803,139.223167 507.383699,133.518685 C511.983788,119.714071 522.326806,107.311884 526.217827,91.7428999 C526.627992,83.3264745 525.321568,78.8840129 519.666826,76.9985052 C478.839272,80.7823956 449.923059,104.16932 427.133937,126.96562 C423.347782,130.752968 410.093012,146.381155 405.843184,147.443946 C400.36502,148.813919 392.292826,140.741383 387.827931,139.252616 C374.306943,140.008802 372.066856,139.2617 369.812679,130.242152 C369.943419,99.006628 383.204659,79.9338934 389.465682,54.8819133 C390.858943,40.2089992 399.357549,31.7500287 403.386559,19.6591928 C402.723123,9.2374854 392.750184,3.69060097 385.371306,0 C361.657425,2.5412514 350.679403,19.808814 332.963298,28.6696562 C329.593514,30.355079 322.863839,39.3183857 320.680172,39.3183857 L320.680172,40.1375187 C301.049879,40.7368836 289.835344,123.424552 289.562917,127.784753 C289.336451,131.409359 277.454571,138.083811 275.64204,141.710015 C271.591708,149.81323 265.763072,156.664343 263.358913,166.284006 L263.358913,192.496263 L264.177788,192.496263 L264.177788,199.049327 L264.996663,199.049327 C265.508922,210.910629 270.728466,219.526361 273.185415,229.35725 L273.185415,234.272048 L274.00429,234.272048 C274.00429,253.931241 273.731358,273.592329 274.00429,293.249626 C274.168451,305.072975 295.227415,331.356225 310.034795,327.653214 C314.077766,326.642153 316.643756,322.709427 319.861296,321.100149 C329.024014,316.517348 335.384198,317.111696 338.695424,307.174888 C339.535979,304.652428 338.189519,304.091351 339.514299,301.440957 C340.856677,298.755357 351.251868,294.341087 353.435176,289.973094 C357.238705,282.363641 360.139393,274.103039 364.080553,266.218236 C366.503593,261.370629 388.408738,252.00248 394.378932,249.016442 C401.827061,245.291205 403.688236,228.753704 407.480934,221.165919 L414.031935,221.165919 L414.031935,220.346786 C440.121326,218.404868 456.531955,206.052714 475.447569,196.591928 L475.447569,196.591928 Z" id="Shape-2" fill="#FFFFFF" sketch:type="MSShapeGroup"></path>
    </g>
</svg>